<?xml version="1.0" encoding="UTF-8"?>
<svg version="1.1" xmlns="http://www.w3.org/2000/svg" width="196" height="196">
<path d="M0 0 C18.01882524 15.2033838 31.7232991 37.94846337 34.375 61.6875 C36.5272021 92.63776735 29.93620357 118.12885132 9.7421875 142.0625 C-5.95417994 159.4683728 -29.2093065 172.26784511 -52.83398438 173.91064453 C-83.91260886 175.29606672 -109.22466899 167.78958422 -132.625 146.6875 C-150.93895425 128.91573519 -161.45080184 104.74373781 -162.09570312 79.37304688 C-162.32825897 50.11752131 -152.92180506 25.54251268 -132.3203125 4.3125 C-95.17957783 -30.75809536 -39.48924115 -31.07797817 0 0 Z " fill="#003382" transform="translate(161.625,22.3125)"/>
<path d="M0 0 C1.82337891 0.00386719 1.82337891 0.00386719 3.68359375 0.0078125 C4.94558594 0.03617188 6.20757812 0.06453125 7.5078125 0.09375 C8.76207031 0.09117188 10.01632813 0.08859375 11.30859375 0.0859375 C20.83674477 0.18676449 26.97390539 1.67550359 34.6328125 7.59375 C38.7802521 13.60038667 39.36150309 18.36513932 38.6328125 25.59375 C37.43222181 29.18983207 36.17976576 32.82027337 32.6328125 34.59375 C32.27973146 37.58453183 32.27973146 37.58453183 34.09375 39.05859375 C34.72539063 39.54457031 35.35703125 40.03054687 36.0078125 40.53125 C39.80021302 43.45748497 41.36255923 45.67599123 42.0390625 50.4765625 C42.2422202 57.50243296 41.62837545 62.6142841 37.62109375 68.49609375 C32.96753771 73.40564109 25.90121903 76.48656268 19.17114258 76.70727539 C17.74819981 76.70711745 16.32525079 76.70149109 14.90234375 76.69140625 C14.15192307 76.6899913 13.40150238 76.68857635 12.62834167 76.68711853 C10.2339579 76.6815256 7.83966797 76.66897444 5.4453125 76.65625 C3.82096489 76.65123408 2.19661582 76.64667134 0.57226562 76.64257812 C-3.40758819 76.63155848 -7.38737194 76.61429873 -11.3671875 76.59375 C-11.48310841 67.42295997 -11.57191595 58.25242265 -11.62624836 49.08105946 C-11.65232723 44.82224945 -11.68769301 40.56394117 -11.74438477 36.30541992 C-11.79876713 32.1945828 -11.82862091 28.08422782 -11.84157372 23.9730587 C-11.85080258 22.4057322 -11.86882499 20.83843168 -11.89583778 19.27131081 C-11.93221408 17.07328192 -11.93712975 14.87723721 -11.93481445 12.67895508 C-11.94591751 11.42875076 -11.95702057 10.17854645 -11.96846008 8.89045715 C-10.73349032 2.1192626 -6.46120126 -0.04155721 0 0 Z " fill="#F6F9FA" transform="translate(69.3671875,58.40625)"/>
<path d="M0 0 C2.56364483 -0.10845031 5.12266279 -0.18749744 7.6875 -0.25 C8.40873047 -0.28351563 9.12996094 -0.31703125 9.87304688 -0.3515625 C13.67831772 -0.42106516 15.5956508 -0.23854463 18.953125 1.7421875 C21.717974 4.79196369 21.96326409 6.74967667 22.20703125 10.7421875 C21.87870456 14.32280691 20.35989594 16.3778934 18 19 C14.23699626 20.25433458 10.72789091 20.10695422 6.8125 20.0625 C6.06291016 20.05798828 5.31332031 20.05347656 4.54101562 20.04882812 C2.69397617 20.03706354 0.84697787 20.01912865 -1 20 C-1.02689449 17.04160645 -1.04678741 14.08345573 -1.0625 11.125 C-1.07087891 10.28324219 -1.07925781 9.44148438 -1.08789062 8.57421875 C-1.09111328 7.76855469 -1.09433594 6.96289062 -1.09765625 6.1328125 C-1.10289307 5.38918457 -1.10812988 4.64555664 -1.11352539 3.87939453 C-1 2 -1 2 0 0 Z " fill="#043380" transform="translate(74,102)"/>
<path d="M0 0 C3.1171875 -0.43359375 3.1171875 -0.43359375 6.875 -0.4375 C8.10992187 -0.45683594 9.34484375 -0.47617188 10.6171875 -0.49609375 C14 0 14 0 16.4140625 1.78125 C18.36268653 4.50740382 18.5617712 6.71122737 18.39453125 10.03125 C17.77046201 13.14541729 16.2713218 14.85846802 14 17 C10.57767028 18.14077657 7.91326783 18.09815117 4.3125 18.0625 C2.54326172 18.04896484 2.54326172 18.04896484 0.73828125 18.03515625 C-0.16535156 18.02355469 -1.06898437 18.01195313 -2 18 C-2.05397335 15.5622037 -2.09365616 13.12560315 -2.125 10.6875 C-2.14175781 9.99720703 -2.15851563 9.30691406 -2.17578125 8.59570312 C-2.21217794 4.82864604 -2.14378864 3.21568296 0 0 Z " fill="#073581" transform="translate(75,72)"/>
<path d="M0 0 C2.75329021 1.79562405 4.52627461 3.05254922 6 6 C6.375 8.8125 6.375 8.8125 6 12 C2.98519334 15.57016579 0.85759504 17.75232066 -3.8125 18.375 C-7 18 -7 18 -9.875 16 C-12.24214679 12.65814571 -12.76091862 10.93959545 -12.48046875 6.9375 C-10.87278432 0.45447986 -5.98096831 -0.96122705 0 0 Z " fill="#F4F9F9" transform="translate(131,118)"/>
<path d="M0 0 C0.66 0 1.32 0 2 0 C2 5.28 2 10.56 2 16 C3.32 16 4.64 16 6 16 C7.32 16 8.64 16 10 16 C9.67 18.64 9.34 21.28 9 24 C8.34 23.34 7.68 22.68 7 22 C6.67 22.99 6.34 23.98 6 25 C4.0625 24.625 4.0625 24.625 2 24 C1.67 23.34 1.34 22.68 1 22 C-0.98 22.66 -2.96 23.32 -5 24 C-4.6390625 23.44054687 -4.278125 22.88109375 -3.90625 22.3046875 C0.41098235 14.84546939 0.55012263 8.48411348 0 0 Z " fill="#103979" transform="translate(110,105)"/>
<path d="M0 0 C-0.33 2.64 -0.66 5.28 -1 8 C-1.66 7.34 -2.32 6.68 -3 6 C-3.33 6.99 -3.66 7.98 -4 9 C-5.32 8.67 -6.64 8.34 -8 8 C-7.6875 5.125 -7.6875 5.125 -7 2 C-4 0 -4 0 0 0 Z " fill="#0F3C87" transform="translate(120,121)"/>
<path d="M0 0 C3.49734228 0.38859359 6.65788261 0.88596087 10 2 C8.875 3.5 8.875 3.5 7 5 C3.8125 5.1875 3.8125 5.1875 1 5 C0.34 3.68 -0.32 2.36 -1 1 C-0.67 0.67 -0.34 0.34 0 0 Z " fill="#E6ECF3" transform="translate(123,131)"/>
<path d="M0 0 C0.66 0.33 1.32 0.66 2 1 C2.36923077 6.41538462 2.36923077 6.41538462 0.5 9.375 C0.005 9.91125 -0.49 10.4475 -1 11 C-2.32 9.68 -3.64 8.36 -5 7 C-2 6 -2 6 0 6 C0 4.02 0 2.04 0 0 Z " fill="#143A83" transform="translate(94,108)"/>
<path d="M0 0 C2.3828125 0.2421875 2.3828125 0.2421875 5.125 0.875 C6.03507813 1.07867187 6.94515625 1.28234375 7.8828125 1.4921875 C8.58148438 1.65976563 9.28015625 1.82734375 10 2 C10.33 2.99 10.66 3.98 11 5 C11.66 5.33 12.32 5.66 13 6 C10 6 10 6 7 4 C4.72461677 3.33386665 4.72461677 3.33386665 2.3125 2.875 C1.50425781 2.70742187 0.69601563 2.53984375 -0.13671875 2.3671875 C-0.75160156 2.24601562 -1.36648437 2.12484375 -2 2 C-1.34 1.34 -0.68 0.68 0 0 Z " fill="#244984" transform="translate(124,115)"/>
<path d="M0 0 C0.33 0 0.66 0 1 0 C1.125 5.75 1.125 5.75 0 8 C-1.65 7.67 -3.3 7.34 -5 7 C-4.34 5.35 -3.68 3.7 -3 2 C-2.34 2 -1.68 2 -1 2 C-0.67 1.34 -0.34 0.68 0 0 Z " fill="#E2E6EB" transform="translate(136,124)"/>
<path d="M0 0 C0.33 0 0.66 0 1 0 C1.66 3.63 2.32 7.26 3 11 C2.67 10.34 2.34 9.68 2 9 C0.35 9 -1.3 9 -3 9 C-3 8.34 -3 7.68 -3 7 C-2.34 6.67 -1.68 6.34 -1 6 C-0.34227572 2.97065509 -0.34227572 2.97065509 0 0 Z " fill="#032D7A" transform="translate(117,123)"/>
<path d="M0 0 C0 0.99 0 1.98 0 3 C-5.94 2.67 -11.88 2.34 -18 2 C-18 1.67 -18 1.34 -18 1 C-15.37504621 0.83257698 -12.75004205 0.6660283 -10.125 0.5 C-9.00544922 0.42845703 -9.00544922 0.42845703 -7.86328125 0.35546875 C-2.2265625 0 -2.2265625 0 0 0 Z " fill="#D1E7EB" transform="translate(91,121)"/>
<path d="M0 0 C0 3.57575896 -1.08840607 5.05295935 -3 8 C-3.66 6.68 -4.32 5.36 -5 4 C-3 1 -3 1 0 0 Z " fill="#0D3B82" transform="translate(111,65)"/>
<path d="M0 0 C3.81538462 2.46153846 3.81538462 2.46153846 4.75 5.1875 C4.8325 5.785625 4.915 6.38375 5 7 C3.125 6.75 3.125 6.75 1 6 C-0.3125 4.0625 -0.3125 4.0625 -1 2 C-0.67 1.34 -0.34 0.68 0 0 Z " fill="#DAE5EE" transform="translate(102,65)"/>
<path d="M0 0 C-0.99 0.33 -1.98 0.66 -3 1 C-3 1.66 -3 2.32 -3 3 C-4.65 3 -6.3 3 -8 3 C-8.33 2.34 -8.66 1.68 -9 1 C-3.375 -1.125 -3.375 -1.125 0 0 Z " fill="#1E4082" transform="translate(101,133)"/>
<path d="M0 0 C0 1.65 0 3.3 0 5 C-3.26954202 4.43628586 -4.82575883 3.50037734 -7 1 C-1.125 0 -1.125 0 0 0 Z " fill="#E3EBEE" transform="translate(97,101)"/>
<path d="M0 0 C1.98 0 3.96 0 6 0 C6.33 0.66 6.66 1.32 7 2 C5.02 2.66 3.04 3.32 1 4 C0.67 2.68 0.34 1.36 0 0 Z " fill="#F2F6F5" transform="translate(97,90)"/>
</svg>
